<svg xmlns="http://www.w3.org/2000/svg" id="icon" viewBox="0 0 32 32" fill="none" focusable="false">
  <rect x="10.25" y="10.25" width="11.5" height="11.5" rx="1.25" stroke="#041127" stroke-width="1.25" />
  <line x1="11.35" y1="19.35" x2="20.65" y2="19.35" stroke="#041127" stroke-width="0.95" stroke-linecap="round" />
  <rect x="11.6" y="16.9" width="1.35" height="2.45" fill="#041127" rx="0.2" />
  <rect x="13.55" y="15.35" width="1.35" height="4" fill="#041127" rx="0.2" />
  <rect x="15.5" y="13.85" width="1.35" height="5.5" fill="#041127" rx="0.2" />
  <rect x="17.45" y="12.25" width="1.35" height="7.1" fill="#041127" rx="0.2" />
  <circle cx="18.35" cy="12.35" r="2.15" stroke="#041127" stroke-width="1.05" />
  <path d="M19.85 13.85l2.35 2.35" stroke="#041127" stroke-width="1.05" stroke-linecap="round" />
  <path d="M12.2 10.25V7.2L10.6 7.2V5.1" stroke="#041127" stroke-width="1" stroke-linecap="round" stroke-linejoin="round" />
  <circle cx="10.6" cy="4.35" r="0.95" fill="#041127" />
  <line x1="16" y1="10.25" x2="16" y2="4.35" stroke="#041127" stroke-width="1" stroke-dasharray="1.15 1.35" stroke-linecap="round" />
  <circle cx="16" cy="3.55" r="0.95" fill="#041127" />
  <path d="M19.8 10.25V7.2l1.6 0V5.1" stroke="#041127" stroke-width="1" stroke-linecap="round" stroke-linejoin="round" />
  <circle cx="21.4" cy="4.35" r="0.95" fill="#041127" />
  <path d="M12.2 21.75v3.05l-1.6 0v2.1" stroke="#041127" stroke-width="1" stroke-linecap="round" stroke-linejoin="round" />
  <circle cx="10.6" cy="27.65" r="0.95" fill="#041127" />
  <line x1="16" y1="21.75" x2="16" y2="27.65" stroke="#041127" stroke-width="1" stroke-dasharray="1.15 1.35" stroke-linecap="round" />
  <circle cx="16" cy="28.45" r="0.95" fill="#041127" />
  <path d="M19.8 21.75v3.05l1.6 0v2.1" stroke="#041127" stroke-width="1" stroke-linecap="round" stroke-linejoin="round" />
  <circle cx="21.4" cy="27.65" r="0.95" fill="#041127" />
  <path d="M10.25 12.2H7.2L7.2 10.6H5.1" stroke="#041127" stroke-width="1" stroke-linecap="round" stroke-linejoin="round" />
  <circle cx="4.35" cy="10.6" r="0.95" fill="#041127" />
  <line x1="10.25" y1="16" x2="4.35" y2="16" stroke="#041127" stroke-width="1" stroke-dasharray="1.15 1.35" stroke-linecap="round" />
  <circle cx="3.55" cy="16" r="0.95" fill="#041127" />
  <path d="M10.25 19.8H7.2L7.2 21.4H5.1" stroke="#041127" stroke-width="1" stroke-linecap="round" stroke-linejoin="round" />
  <circle cx="4.35" cy="21.4" r="0.95" fill="#041127" />
  <path d="M21.75 12.2h3.05l0-1.6h2.1" stroke="#041127" stroke-width="1" stroke-linecap="round" stroke-linejoin="round" />
  <circle cx="27.65" cy="10.6" r="0.95" fill="#041127" />
  <line x1="21.75" y1="16" x2="27.65" y2="16" stroke="#041127" stroke-width="1" stroke-dasharray="1.15 1.35" stroke-linecap="round" />
  <circle cx="28.45" cy="16" r="0.95" fill="#041127" />
  <path d="M21.75 19.8h3.05l0 1.6h2.1" stroke="#041127" stroke-width="1" stroke-linecap="round" stroke-linejoin="round" />
  <circle cx="27.65" cy="21.4" r="0.95" fill="#041127" />
</svg>
