<svg xmlns="http://www.w3.org/2000/svg" id="icon" viewBox="0 0 32 32" fill="none" focusable="false">
  <path
    d="M16 5.5c-3.8 0-6.8 2.6-7.4 6-.3 1.7 0 3.3.8 4.7.5.9.7 1.9.6 2.9-.1 1.4.4 2.8 1.4 3.8 1 1 2.4 1.5 3.8 1.4"
    stroke="#041127"
    stroke-width="1.35"
    stroke-linecap="round"
    stroke-linejoin="round"
  />
  <path
    d="M14.2 9.2c-1.2 1.1-1.8 2.6-1.6 4.2M12.4 13.8c-.8 1.4-.6 3 .5 4.3M11.6 18.6c-.3 1.6.3 3.2 1.6 4.2"
    stroke="#041127"
    stroke-width="1.2"
    stroke-linecap="round"
  />
  <path
    d="M16 5.5c3.8 0 6.8 2.6 7.4 6 .3 1.7 0 3.3-.8 4.7-.5.9-.7 1.9-.6 2.9.1 1.4-.4 2.8-1.4 3.8-1 1-2.4 1.5-3.8 1.4"
    stroke="#041127"
    stroke-width="1.35"
    stroke-linecap="round"
    stroke-linejoin="round"
  />
  <path d="M18.5 9h5M18.5 12.5h4M18.5 16h5.5M18.5 19.5h3.5" stroke="#041127" stroke-width="1.15" stroke-linecap="round" />
  <circle cx="24.5" cy="9" r="1.15" fill="#041127" />
  <circle cx="23.5" cy="12.5" r="1.05" fill="#041127" />
  <circle cx="25.5" cy="16" r="1.1" fill="#041127" />
  <circle cx="23.5" cy="19.5" r="1.05" fill="#041127" />
</svg>
