<svg xmlns="http://www.w3.org/2000/svg" id="icon" viewBox="0 0 32 32" fill="none" focusable="false">
  <path
    d="M10.75 9.15A6.85 6.85 0 0 0 3.9 16a6.85 6.85 0 0 0 6.85 6.85"
    stroke="#041127"
    stroke-width="1.45"
    stroke-linecap="round"
  />
  <path
    d="M5.35 11.4l.95.55M4.9 14.3h1.1M5.35 17.15l.95-.55M6.5 19.65l.85.75M8.65 21.35l.55.95M10.75 22.5v1.05"
    stroke="#041127"
    stroke-width="0.9"
    stroke-linecap="round"
  />
  <rect x="10.9" y="10.75" width="9.2" height="10.5" rx="0.9" fill="#041127" />
  <rect x="12.1" y="9.05" width="1.15" height="1.75" fill="#041127" rx="0.15" />
  <rect x="14.45" y="9.05" width="1.15" height="1.75" fill="#041127" rx="0.15" />
  <rect x="16.8" y="9.05" width="1.15" height="1.75" fill="#041127" rx="0.15" />
  <rect x="12.1" y="21.2" width="1.15" height="1.75" fill="#041127" rx="0.15" />
  <rect x="14.45" y="21.2" width="1.15" height="1.75" fill="#041127" rx="0.15" />
  <rect x="16.8" y="21.2" width="1.15" height="1.75" fill="#041127" rx="0.15" />
  <rect x="8.95" y="12.35" width="1.75" height="1.15" fill="#041127" rx="0.15" />
  <rect x="8.95" y="15.4" width="1.75" height="1.15" fill="#041127" rx="0.15" />
  <rect x="8.95" y="18.45" width="1.75" height="1.15" fill="#041127" rx="0.15" />
  <text
    x="15.5"
    y="17.35"
    text-anchor="middle"
    fill="#ffffff"
    font-family="system-ui, &quot;Plus Jakarta Sans&quot;, sans-serif"
    font-size="5.6"
    font-weight="800"
    letter-spacing="-0.06em"
  >
    AI
  </text>
  <path d="M20.1 13.35h3.2l2.9-2.55" stroke="#041127" stroke-width="1.05" stroke-linecap="round" stroke-linejoin="round" />
  <circle cx="27.35" cy="9.85" r="1.05" fill="#041127" />
  <path d="M20.1 16h7.6" stroke="#041127" stroke-width="1.05" stroke-linecap="round" />
  <circle cx="29.15" cy="16" r="1.05" fill="#041127" />
  <path d="M20.1 18.65h3.2l2.9 2.55" stroke="#041127" stroke-width="1.05" stroke-linecap="round" stroke-linejoin="round" />
  <circle cx="27.35" cy="22.15" r="1.05" fill="#041127" />
</svg>
