<svg xmlns="http://www.w3.org/2000/svg" id="icon" viewBox="0 0 32 32" fill="none" focusable="false">
  <path
    d="M16 5.25c-4.65 0-8.35 3.55-8.35 8.05 0 2.95 1.55 5.55 3.95 7l1.05 4.55c.25 1.05 1.15 1.8 2.2 1.8h2.3c1.05 0 1.95-.75 2.2-1.8l1.05-4.55c2.4-1.45 3.95-4.05 3.95-7 0-4.5-3.7-8.05-8.35-8.05z"
    stroke="#041127"
    stroke-width="1.2"
    stroke-linejoin="round"
  />
  <path
    d="M12.2 12.5c1.2-1.4 3-2.25 4.9-2.25M19.1 10.25c1.35.85 2.35 2.35 2.55 4.05M11.35 15.6c1.65 1.1 3.75 1.7 5.9 1.45M14.8 18.2c1.9.35 3.75-.15 5.15-1.35"
    stroke="#041127"
    stroke-width="0.95"
    stroke-linecap="round"
  />
  <path d="M12.85 24.6h6.3" stroke="#041127" stroke-width="1.15" stroke-linecap="round" />
  <path d="M13.35 26.35h5.3" stroke="#041127" stroke-width="1.15" stroke-linecap="round" />
  <line x1="11.25" y1="28.35" x2="20.75" y2="28.35" stroke="#041127" stroke-width="1.05" stroke-linecap="round" />
  <line x1="11.6" y1="29.85" x2="20.4" y2="29.85" stroke="#041127" stroke-width="1.05" stroke-linecap="round" />
  <line x1="12.1" y1="31.2" x2="19.9" y2="31.2" stroke="#041127" stroke-width="1.05" stroke-linecap="round" />
  <circle cx="10.35" cy="9.85" r="2.35" stroke="#041127" stroke-width="1" />
  <path
    d="M10.35 6.9v1.1M10.35 11.7v1.1M7.4 9.85h1.1M12.2 9.85h1.1M8.35 7.85l.78.78M11.47 10.97l.78.78M8.35 11.85l.78-.78M11.47 8.73l.78-.78"
    stroke="#041127"
    stroke-width="0.85"
    stroke-linecap="round"
  />
</svg>
